<svg width="600" height="600" viewBox="0 0 600 600" xmlns="http://www.w3.org/2000/svg">
  <rect width="600" height="600" rx="64" fill="#0b0b10"/>

  <circle cx="300" cy="280" r="200" fill="#8b5cf6" opacity="0.08"/>

  <path d="M180 260 Q300 170 420 260 Q400 420 300 430 Q200 420 180 260Z"
        fill="#111827"
        stroke="#8b5cf6"
        stroke-width="2"/>

  <path d="M230 210 Q190 130 210 95"
        stroke="#8b5cf6"
        stroke-width="6"
        fill="none"
        stroke-linecap="round"/>

  <path d="M370 210 Q410 130 390 95"
        stroke="#8b5cf6"
        stroke-width="6"
        fill="none"
        stroke-linecap="round"/>

  <ellipse cx="255" cy="285" rx="20" ry="24" fill="#ffffff"/>
  <ellipse cx="345" cy="285" rx="20" ry="24" fill="#ffffff"/>

  <circle cx="258" cy="290" r="9" fill="#8b5cf6"/>
  <circle cx="348" cy="290" r="9" fill="#8b5cf6"/>

  <circle cx="262" cy="285" r="3" fill="#ffffff"/>
  <circle cx="352" cy="285" r="3" fill="#ffffff"/>

  <path d="M255 350 Q300 375 345 350"
        stroke="#8b5cf6"
        stroke-width="5"
        fill="none"
        stroke-linecap="round"/>

  <circle cx="215" cy="325" r="8" fill="#8b5cf6" opacity="0.18"/>
  <circle cx="385" cy="325" r="8" fill="#8b5cf6" opacity="0.18"/>

  <text x="300" y="505"
        text-anchor="middle"
        fill="#8b5cf6"
        font-family="monospace"
        font-size="30"
        letter-spacing="2">dmrkt</text>
</svg>