<svg width="600" height="600" viewBox="0 0 600 600" xmlns="http://www.w3.org/2000/svg">
  <rect width="600" height="600" rx="64" fill="#0b0b10"/>

  <!-- glow -->
  <circle cx="300" cy="280" r="180" fill="#7c5cff" opacity="0.12"/>

  <!-- head -->
  <ellipse cx="300" cy="280" rx="140" ry="150" fill="#111827"/>

  <!-- eyes -->
  <ellipse cx="255" cy="260" rx="18" ry="26" fill="#ffffff"/>
  <ellipse cx="345" cy="260" rx="18" ry="26" fill="#ffffff"/>

  <!-- pupils -->
  <circle cx="258" cy="268" r="8" fill="#7c5cff"/>
  <circle cx="348" cy="268" r="8" fill="#7c5cff"/>

  <!-- eye highlights -->
  <circle cx="262" cy="262" r="3" fill="#ffffff"/>
  <circle cx="352" cy="262" r="3" fill="#ffffff"/>

  <!-- mouth -->
  <path
    d="M260 330 Q300 350 340 330"
    stroke="#7c5cff"
    stroke-width="6"
    fill="none"
    stroke-linecap="round"
  />

  <!-- cheeks -->
  <circle cx="220" cy="310" r="10" fill="#ff7aa8" opacity="0.6"/>
  <circle cx="380" cy="310" r="10" fill="#ff7aa8" opacity="0.6"/>

  <!-- ears -->
  <path
    d="M190 170 Q140 110 160 80"
    stroke="#7c5cff"
    stroke-width="10"
    fill="none"
    stroke-linecap="round"
  />
  <path
    d="M410 170 Q460 110 440 80"
    stroke="#7c5cff"
    stroke-width="10"
    fill="none"
    stroke-linecap="round"
  />

  <!-- label plate -->
  <rect
    x="200"
    y="420"
    rx="18"
    ry="18"
    width="200"
    height="48"
    fill="#111827"
    stroke="#7c5cff"
    stroke-width="2"
  />

  <text
    x="300"
    y="452"
    text-anchor="middle"
    font-size="22"
    fill="#7c5cff"
    font-family="monospace"
    letter-spacing="1"
  >
    dmrkt
  </text>
</svg>
